ply
format ascii 1.0
comment : gravel
comment : MagicaVoxel @ ephtracy
element vertex 480
property float x
property float y
property float z
property uchar red
property uchar green
property uchar blue
element face 120
property list uchar int vertex_index
end_header
-5 -10 0 85 85 85
-5 -10 1 85 85 85
-5 -9 1 85 85 85
-5 -9 0 85 85 85
-5 -9 0 85 85 85
-5 -9 1 85 85 85
-5 -8 1 85 85 85
-5 -8 0 85 85 85
-10 7 0 85 85 85
-10 7 1 85 85 85
-10 8 1 85 85 85
-10 8 0 85 85 85
-10 8 0 85 85 85
-10 8 1 85 85 85
-10 9 1 85 85 85
-10 9 0 85 85 85
3 9 0 85 85 85
3 9 1 85 85 85
3 10 1 85 85 85
3 10 0 85 85 85
4 8 0 85 85 85
4 8 1 85 85 85
4 9 1 85 85 85
4 9 0 85 85 85
13 -5 0 85 85 85
13 -5 1 85 85 85
13 -4 1 85 85 85
13 -4 0 85 85 85
7 -3 0 85 85 85
7 -3 1 85 85 85
7 -2 1 85 85 85
7 -2 0 85 85 85
13 3 0 85 85 85
13 3 1 85 85 85
13 4 1 85 85 85
13 4 0 85 85 85
10 4 0 85 85 85
10 4 1 85 85 85
10 5 1 85 85 85
10 5 0 85 85 85
-1 -3 0 85 85 85
-1 -3 1 85 85 85
-1 -2 1 85 85 85
-1 -2 0 85 85 85
-1 -2 0 85 85 85
-1 -2 1 85 85 85
-1 -1 1 85 85 85
-1 -1 0 85 85 85
-12 -8 0 85 85 85
-12 -8 1 85 85 85
-12 -7 1 85 85 85
-12 -7 0 85 85 85
5 -12 0 85 85 85
5 -12 1 85 85 85
5 -11 1 85 85 85
5 -11 0 85 85 85
12 -13 0 85 85 85
12 -13 1 85 85 85
12 -12 1 85 85 85
12 -12 0 85 85 85
12 -12 0 85 85 85
12 -12 1 85 85 85
12 -11 1 85 85 85
12 -11 0 85 85 85
6 -11 0 85 85 85
6 -11 1 85 85 85
6 -10 1 85 85 85
6 -10 0 85 85 85
8 -2 0 85 85 85
8 -2 1 85 85 85
8 -1 1 85 85 85
8 -1 0 85 85 85
-13 12 0 85 85 85
-13 12 1 85 85 85
-13 13 1 85 85 85
-13 13 0 85 85 85
-3 -10 0 85 85 85
-3 -9 0 85 85 85
-3 -9 1 85 85 85
-3 -10 1 85 85 85
-3 -9 0 85 85 85
-3 -8 0 85 85 85
-3 -8 1 85 85 85
-3 -9 1 85 85 85
-9 7 0 85 85 85
-9 8 0 85 85 85
-9 8 1 85 85 85
-9 7 1 85 85 85
-9 8 0 85 85 85
-9 9 0 85 85 85
-9 9 1 85 85 85
-9 8 1 85 85 85
4 9 0 85 85 85
4 10 0 85 85 85
4 10 1 85 85 85
4 9 1 85 85 85
5 8 0 85 85 85
5 9 0 85 85 85
5 9 1 85 85 85
5 8 1 85 85 85
14 -5 0 85 85 85
14 -4 0 85 85 85
14 -4 1 85 85 85
14 -5 1 85 85 85
14 3 0 85 85 85
14 4 0 85 85 85
14 4 1 85 85 85
14 3 1 85 85 85
11 4 0 85 85 85
11 5 0 85 85 85
11 5 1 85 85 85
11 4 1 85 85 85
1 -3 0 85 85 85
1 -2 0 85 85 85
1 -2 1 85 85 85
1 -3 1 85 85 85
1 -2 0 85 85 85
1 -1 0 85 85 85
1 -1 1 85 85 85
1 -2 1 85 85 85
-11 -8 0 85 85 85
-11 -7 0 85 85 85
-11 -7 1 85 85 85
-11 -8 1 85 85 85
6 -12 0 85 85 85
6 -11 0 85 85 85
6 -11 1 85 85 85
6 -12 1 85 85 85
13 -13 0 85 85 85
13 -12 0 85 85 85
13 -12 1 85 85 85
13 -13 1 85 85 85
13 -12 0 85 85 85
13 -11 0 85 85 85
13 -11 1 85 85 85
13 -12 1 85 85 85
7 -11 0 85 85 85
7 -10 0 85 85 85
7 -10 1 85 85 85
7 -11 1 85 85 85
9 -3 0 85 85 85
9 -2 0 85 85 85
9 -2 1 85 85 85
9 -3 1 85 85 85
9 -2 0 85 85 85
9 -1 0 85 85 85
9 -1 1 85 85 85
9 -2 1 85 85 85
-12 12 0 85 85 85
-12 13 0 85 85 85
-12 13 1 85 85 85
-12 12 1 85 85 85
-5 -10 0 85 85 85
-4 -10 0 85 85 85
-4 -10 1 85 85 85
-5 -10 1 85 85 85
-4 -10 0 85 85 85
-3 -10 0 85 85 85
-3 -10 1 85 85 85
-4 -10 1 85 85 85
-10 7 0 85 85 85
-9 7 0 85 85 85
-9 7 1 85 85 85
-10 7 1 85 85 85
3 9 0 85 85 85
4 9 0 85 85 85
4 9 1 85 85 85
3 9 1 85 85 85
4 8 0 85 85 85
5 8 0 85 85 85
5 8 1 85 85 85
4 8 1 85 85 85
13 -5 0 85 85 85
14 -5 0 85 85 85
14 -5 1 85 85 85
13 -5 1 85 85 85
7 -3 0 85 85 85
8 -3 0 85 85 85
8 -3 1 85 85 85
7 -3 1 85 85 85
13 3 0 85 85 85
14 3 0 85 85 85
14 3 1 85 85 85
13 3 1 85 85 85
10 4 0 85 85 85
11 4 0 85 85 85
11 4 1 85 85 85
10 4 1 85 85 85
-1 -3 0 85 85 85
0 -3 0 85 85 85
0 -3 1 85 85 85
-1 -3 1 85 85 85
0 -3 0 85 85 85
1 -3 0 85 85 85
1 -3 1 85 85 85
0 -3 1 85 85 85
-12 -8 0 85 85 85
-11 -8 0 85 85 85
-11 -8 1 85 85 85
-12 -8 1 85 85 85
5 -12 0 85 85 85
6 -12 0 85 85 85
6 -12 1 85 85 85
5 -12 1 85 85 85
12 -13 0 85 85 85
13 -13 0 85 85 85
13 -13 1 85 85 85
12 -13 1 85 85 85
6 -11 0 85 85 85
7 -11 0 85 85 85
7 -11 1 85 85 85
6 -11 1 85 85 85
8 -3 0 85 85 85
9 -3 0 85 85 85
9 -3 1 85 85 85
8 -3 1 85 85 85
-13 12 0 85 85 85
-12 12 0 85 85 85
-12 12 1 85 85 85
-13 12 1 85 85 85
-5 -8 0 85 85 85
-5 -8 1 85 85 85
-4 -8 1 85 85 85
-4 -8 0 85 85 85
-4 -8 0 85 85 85
-4 -8 1 85 85 85
-3 -8 1 85 85 85
-3 -8 0 85 85 85
-10 9 0 85 85 85
-10 9 1 85 85 85
-9 9 1 85 85 85
-9 9 0 85 85 85
3 10 0 85 85 85
3 10 1 85 85 85
4 10 1 85 85 85
4 10 0 85 85 85
4 9 0 85 85 85
4 9 1 85 85 85
5 9 1 85 85 85
5 9 0 85 85 85
13 -4 0 85 85 85
13 -4 1 85 85 85
14 -4 1 85 85 85
14 -4 0 85 85 85
7 -2 0 85 85 85
7 -2 1 85 85 85
8 -2 1 85 85 85
8 -2 0 85 85 85
13 4 0 85 85 85
13 4 1 85 85 85
14 4 1 85 85 85
14 4 0 85 85 85
10 5 0 85 85 85
10 5 1 85 85 85
11 5 1 85 85 85
11 5 0 85 85 85
-1 -1 0 85 85 85
-1 -1 1 85 85 85
0 -1 1 85 85 85
0 -1 0 85 85 85
0 -1 0 85 85 85
0 -1 1 85 85 85
1 -1 1 85 85 85
1 -1 0 85 85 85
-12 -7 0 85 85 85
-12 -7 1 85 85 85
-11 -7 1 85 85 85
-11 -7 0 85 85 85
5 -11 0 85 85 85
5 -11 1 85 85 85
6 -11 1 85 85 85
6 -11 0 85 85 85
12 -11 0 85 85 85
12 -11 1 85 85 85
13 -11 1 85 85 85
13 -11 0 85 85 85
6 -10 0 85 85 85
6 -10 1 85 85 85
7 -10 1 85 85 85
7 -10 0 85 85 85
8 -1 0 85 85 85
8 -1 1 85 85 85
9 -1 1 85 85 85
9 -1 0 85 85 85
-13 13 0 85 85 85
-13 13 1 85 85 85
-12 13 1 85 85 85
-12 13 0 85 85 85
-5 -10 0 85 85 85
-5 -9 0 85 85 85
-4 -9 0 85 85 85
-4 -10 0 85 85 85
-4 -10 0 85 85 85
-4 -9 0 85 85 85
-3 -9 0 85 85 85
-3 -10 0 85 85 85
-5 -9 0 85 85 85
-5 -8 0 85 85 85
-4 -8 0 85 85 85
-4 -9 0 85 85 85
-4 -9 0 85 85 85
-4 -8 0 85 85 85
-3 -8 0 85 85 85
-3 -9 0 85 85 85
-10 7 0 85 85 85
-10 8 0 85 85 85
-9 8 0 85 85 85
-9 7 0 85 85 85
-10 8 0 85 85 85
-10 9 0 85 85 85
-9 9 0 85 85 85
-9 8 0 85 85 85
3 9 0 85 85 85
3 10 0 85 85 85
4 10 0 85 85 85
4 9 0 85 85 85
4 8 0 85 85 85
4 9 0 85 85 85
5 9 0 85 85 85
5 8 0 85 85 85
13 -5 0 85 85 85
13 -4 0 85 85 85
14 -4 0 85 85 85
14 -5 0 85 85 85
7 -3 0 85 85 85
7 -2 0 85 85 85
8 -2 0 85 85 85
8 -3 0 85 85 85
13 3 0 85 85 85
13 4 0 85 85 85
14 4 0 85 85 85
14 3 0 85 85 85
10 4 0 85 85 85
10 5 0 85 85 85
11 5 0 85 85 85
11 4 0 85 85 85
-1 -3 0 85 85 85
-1 -2 0 85 85 85
0 -2 0 85 85 85
0 -3 0 85 85 85
0 -3 0 85 85 85
0 -2 0 85 85 85
1 -2 0 85 85 85
1 -3 0 85 85 85
-1 -2 0 85 85 85
-1 -1 0 85 85 85
0 -1 0 85 85 85
0 -2 0 85 85 85
0 -2 0 85 85 85
0 -1 0 85 85 85
1 -1 0 85 85 85
1 -2 0 85 85 85
-12 -8 0 85 85 85
-12 -7 0 85 85 85
-11 -7 0 85 85 85
-11 -8 0 85 85 85
5 -12 0 85 85 85
5 -11 0 85 85 85
6 -11 0 85 85 85
6 -12 0 85 85 85
12 -13 0 85 85 85
12 -12 0 85 85 85
13 -12 0 85 85 85
13 -13 0 85 85 85
12 -12 0 85 85 85
12 -11 0 85 85 85
13 -11 0 85 85 85
13 -12 0 85 85 85
6 -11 0 85 85 85
6 -10 0 85 85 85
7 -10 0 85 85 85
7 -11 0 85 85 85
8 -3 0 85 85 85
8 -2 0 85 85 85
9 -2 0 85 85 85
9 -3 0 85 85 85
8 -2 0 85 85 85
8 -1 0 85 85 85
9 -1 0 85 85 85
9 -2 0 85 85 85
-13 12 0 85 85 85
-13 13 0 85 85 85
-12 13 0 85 85 85
-12 12 0 85 85 85
-5 -10 1 85 85 85
-4 -10 1 85 85 85
-4 -9 1 85 85 85
-5 -9 1 85 85 85
-4 -10 1 85 85 85
-3 -10 1 85 85 85
-3 -9 1 85 85 85
-4 -9 1 85 85 85
-5 -9 1 85 85 85
-4 -9 1 85 85 85
-4 -8 1 85 85 85
-5 -8 1 85 85 85
-4 -9 1 85 85 85
-3 -9 1 85 85 85
-3 -8 1 85 85 85
-4 -8 1 85 85 85
-10 7 1 85 85 85
-9 7 1 85 85 85
-9 8 1 85 85 85
-10 8 1 85 85 85
-10 8 1 85 85 85
-9 8 1 85 85 85
-9 9 1 85 85 85
-10 9 1 85 85 85
3 9 1 85 85 85
4 9 1 85 85 85
4 10 1 85 85 85
3 10 1 85 85 85
4 8 1 85 85 85
5 8 1 85 85 85
5 9 1 85 85 85
4 9 1 85 85 85
13 -5 1 85 85 85
14 -5 1 85 85 85
14 -4 1 85 85 85
13 -4 1 85 85 85
7 -3 1 85 85 85
8 -3 1 85 85 85
8 -2 1 85 85 85
7 -2 1 85 85 85
13 3 1 85 85 85
14 3 1 85 85 85
14 4 1 85 85 85
13 4 1 85 85 85
10 4 1 85 85 85
11 4 1 85 85 85
11 5 1 85 85 85
10 5 1 85 85 85
-1 -3 1 85 85 85
0 -3 1 85 85 85
0 -2 1 85 85 85
-1 -2 1 85 85 85
0 -3 1 85 85 85
1 -3 1 85 85 85
1 -2 1 85 85 85
0 -2 1 85 85 85
-1 -2 1 85 85 85
0 -2 1 85 85 85
0 -1 1 85 85 85
-1 -1 1 85 85 85
0 -2 1 85 85 85
1 -2 1 85 85 85
1 -1 1 85 85 85
0 -1 1 85 85 85
-12 -8 1 85 85 85
-11 -8 1 85 85 85
-11 -7 1 85 85 85
-12 -7 1 85 85 85
5 -12 1 85 85 85
6 -12 1 85 85 85
6 -11 1 85 85 85
5 -11 1 85 85 85
12 -13 1 85 85 85
13 -13 1 85 85 85
13 -12 1 85 85 85
12 -12 1 85 85 85
12 -12 1 85 85 85
13 -12 1 85 85 85
13 -11 1 85 85 85
12 -11 1 85 85 85
6 -11 1 85 85 85
7 -11 1 85 85 85
7 -10 1 85 85 85
6 -10 1 85 85 85
8 -3 1 85 85 85
9 -3 1 85 85 85
9 -2 1 85 85 85
8 -2 1 85 85 85
8 -2 1 85 85 85
9 -2 1 85 85 85
9 -1 1 85 85 85
8 -1 1 85 85 85
-13 12 1 85 85 85
-12 12 1 85 85 85
-12 13 1 85 85 85
-13 13 1 85 85 85
4 0 1 2 3
4 4 5 6 7
4 8 9 10 11
4 12 13 14 15
4 16 17 18 19
4 20 21 22 23
4 24 25 26 27
4 28 29 30 31
4 32 33 34 35
4 36 37 38 39
4 40 41 42 43
4 44 45 46 47
4 48 49 50 51
4 52 53 54 55
4 56 57 58 59
4 60 61 62 63
4 64 65 66 67
4 68 69 70 71
4 72 73 74 75
4 76 77 78 79
4 80 81 82 83
4 84 85 86 87
4 88 89 90 91
4 92 93 94 95
4 96 97 98 99
4 100 101 102 103
4 104 105 106 107
4 108 109 110 111
4 112 113 114 115
4 116 117 118 119
4 120 121 122 123
4 124 125 126 127
4 128 129 130 131
4 132 133 134 135
4 136 137 138 139
4 140 141 142 143
4 144 145 146 147
4 148 149 150 151
4 152 153 154 155
4 156 157 158 159
4 160 161 162 163
4 164 165 166 167
4 168 169 170 171
4 172 173 174 175
4 176 177 178 179
4 180 181 182 183
4 184 185 186 187
4 188 189 190 191
4 192 193 194 195
4 196 197 198 199
4 200 201 202 203
4 204 205 206 207
4 208 209 210 211
4 212 213 214 215
4 216 217 218 219
4 220 221 222 223
4 224 225 226 227
4 228 229 230 231
4 232 233 234 235
4 236 237 238 239
4 240 241 242 243
4 244 245 246 247
4 248 249 250 251
4 252 253 254 255
4 256 257 258 259
4 260 261 262 263
4 264 265 266 267
4 268 269 270 271
4 272 273 274 275
4 276 277 278 279
4 280 281 282 283
4 284 285 286 287
4 288 289 290 291
4 292 293 294 295
4 296 297 298 299
4 300 301 302 303
4 304 305 306 307
4 308 309 310 311
4 312 313 314 315
4 316 317 318 319
4 320 321 322 323
4 324 325 326 327
4 328 329 330 331
4 332 333 334 335
4 336 337 338 339
4 340 341 342 343
4 344 345 346 347
4 348 349 350 351
4 352 353 354 355
4 356 357 358 359
4 360 361 362 363
4 364 365 366 367
4 368 369 370 371
4 372 373 374 375
4 376 377 378 379
4 380 381 382 383
4 384 385 386 387
4 388 389 390 391
4 392 393 394 395
4 396 397 398 399
4 400 401 402 403
4 404 405 406 407
4 408 409 410 411
4 412 413 414 415
4 416 417 418 419
4 420 421 422 423
4 424 425 426 427
4 428 429 430 431
4 432 433 434 435
4 436 437 438 439
4 440 441 442 443
4 444 445 446 447
4 448 449 450 451
4 452 453 454 455
4 456 457 458 459
4 460 461 462 463
4 464 465 466 467
4 468 469 470 471
4 472 473 474 475
4 476 477 478 479
