ply
format ascii 1.0
comment : 
comment : MagicaVoxel @ ephtracy
element vertex 96
property float x
property float y
property float z
property uchar red
property uchar green
property uchar blue
element face 24
property list uchar int vertex_index
end_header
-1 0 0 221 0 0
-1 0 1 221 0 0
-1 1 1 221 0 0
-1 1 0 221 0 0
-1 -1 0 0 0 255
-1 -1 1 0 0 255
-1 0 1 0 0 255
-1 0 0 0 0 255
-1 0 1 204 204 0
-1 0 2 204 204 0
-1 1 2 204 204 0
-1 1 1 204 204 0
-1 -1 1 0 255 255
-1 -1 2 0 255 255
-1 0 2 0 255 255
-1 0 1 0 255 255
1 0 0 0 238 0
1 1 0 0 238 0
1 1 1 0 238 0
1 0 1 0 238 0
1 -1 0 85 85 85
1 0 0 85 85 85
1 0 1 85 85 85
1 -1 1 85 85 85
1 0 1 153 0 0
1 1 1 153 0 0
1 1 2 153 0 0
1 0 2 153 0 0
1 -1 1 255 255 255
1 0 1 255 255 255
1 0 2 255 255 255
1 -1 2 255 255 255
-1 -1 0 0 0 255
0 -1 0 0 0 255
0 -1 1 0 0 255
-1 -1 1 0 0 255
0 -1 0 85 85 85
1 -1 0 85 85 85
1 -1 1 85 85 85
0 -1 1 85 85 85
-1 -1 1 0 255 255
0 -1 1 0 255 255
0 -1 2 0 255 255
-1 -1 2 0 255 255
0 -1 1 255 255 255
1 -1 1 255 255 255
1 -1 2 255 255 255
0 -1 2 255 255 255
-1 1 0 221 0 0
-1 1 1 221 0 0
0 1 1 221 0 0
0 1 0 221 0 0
0 1 0 0 238 0
0 1 1 0 238 0
1 1 1 0 238 0
1 1 0 0 238 0
-1 1 1 204 204 0
-1 1 2 204 204 0
0 1 2 204 204 0
0 1 1 204 204 0
0 1 1 153 0 0
0 1 2 153 0 0
1 1 2 153 0 0
1 1 1 153 0 0
-1 0 0 221 0 0
-1 1 0 221 0 0
0 1 0 221 0 0
0 0 0 221 0 0
0 0 0 0 238 0
0 1 0 0 238 0
1 1 0 0 238 0
1 0 0 0 238 0
-1 -1 0 0 0 255
-1 0 0 0 0 255
0 0 0 0 0 255
0 -1 0 0 0 255
0 -1 0 85 85 85
0 0 0 85 85 85
1 0 0 85 85 85
1 -1 0 85 85 85
-1 0 2 204 204 0
0 0 2 204 204 0
0 1 2 204 204 0
-1 1 2 204 204 0
0 0 2 153 0 0
1 0 2 153 0 0
1 1 2 153 0 0
0 1 2 153 0 0
-1 -1 2 0 255 255
0 -1 2 0 255 255
0 0 2 0 255 255
-1 0 2 0 255 255
0 -1 2 255 255 255
1 -1 2 255 255 255
1 0 2 255 255 255
0 0 2 255 255 255
4 0 1 2 3
4 4 5 6 7
4 8 9 10 11
4 12 13 14 15
4 16 17 18 19
4 20 21 22 23
4 24 25 26 27
4 28 29 30 31
4 32 33 34 35
4 36 37 38 39
4 40 41 42 43
4 44 45 46 47
4 48 49 50 51
4 52 53 54 55
4 56 57 58 59
4 60 61 62 63
4 64 65 66 67
4 68 69 70 71
4 72 73 74 75
4 76 77 78 79
4 80 81 82 83
4 84 85 86 87
4 88 89 90 91
4 92 93 94 95
