# MagicaVoxel @ ephtracy

# material
mtllib skull.mtl
usemtl palette

# normals
vn -1 0 0
vn 1 0 0
vn 0 0 1
vn 0 0 -1
vn 0 -1 0
vn 0 1 0

# texcoords
vt 0.00585938 0.5
vt 0.00976563 0.5
vt 0.0136719 0.5

# verts
v -7 8 3
v -7 8 1
v -7 10 1
v -7 10 -3
v -7 12 1
v -7 12 -3
v -7 14 3
v -7 14 1
v -5 6 3
v -5 6 -1
v -5 8 5
v -5 8 3
v -5 8 1
v -5 8 -1
v -5 8 -3
v -5 10 5
v -5 10 3
v -5 10 1
v -5 10 -3
v -5 10 -5
v -5 12 5
v -5 12 3
v -5 12 1
v -5 12 -3
v -5 12 -5
v -5 14 5
v -5 14 3
v -5 14 1
v -5 14 -1
v -5 14 -3
v -5 16 3
v -5 16 -1
v -3 0 3
v -3 0 -1
v -3 2 -1
v -3 2 -3
v -3 4 3
v -3 4 -1
v -3 6 5
v -3 6 3
v -3 6 -1
v -3 8 5
v -3 8 3
v -3 8 -1
v -3 8 -3
v -3 8 -5
v -3 10 -3
v -3 10 -5
v -3 12 -3
v -3 12 -5
v -3 14 5
v -3 14 3
v -3 14 -1
v -3 14 -3
v -3 14 -5
v -3 16 5
v -3 16 3
v -3 16 -1
v -3 16 -3
v -3 18 3
v -3 18 -1
v -1 0 -1
v -1 0 -3
v -1 2 -1
v -1 2 -3
v -1 4 5
v -1 4 3
v -1 4 -3
v -1 4 -5
v -1 6 5
v -1 6 3
v -1 8 -3
v -1 8 -5
v -1 10 5
v -1 10 3
v -1 12 5
v -1 12 3
v -1 14 -3
v -1 14 -5
v -1 16 5
v -1 16 3
v -1 16 -1
v -1 16 -3
v -1 16 -5
v -1 18 5
v -1 18 3
v -1 18 -1
v -1 18 -3
v 1 2 3
v 1 2 1
v 1 4 3
v 1 4 1
v 3 10 5
v 3 10 3
v 3 12 5
v 3 12 3
v -3 10 5
v -3 10 3
v -3 12 5
v -3 12 3
v -1 2 3
v -1 2 1
v -1 4 3
v -1 4 1
v 1 0 -1
v 1 0 -3
v 1 2 -1
v 1 2 -3
v 1 4 5
v 1 4 3
v 1 4 -3
v 1 4 -5
v 1 6 5
v 1 6 3
v 1 8 -3
v 1 8 -5
v 1 10 5
v 1 10 3
v 1 12 5
v 1 12 3
v 1 14 -3
v 1 14 -5
v 1 16 5
v 1 16 3
v 1 16 -1
v 1 16 -3
v 1 16 -5
v 1 18 5
v 1 18 3
v 1 18 -1
v 1 18 -3
v 3 0 3
v 3 0 -1
v 3 2 -1
v 3 2 -3
v 3 4 3
v 3 4 -1
v 3 6 5
v 3 6 3
v 3 6 -1
v 3 8 5
v 3 8 3
v 3 8 -1
v 3 8 -3
v 3 8 -5
v 3 10 -3
v 3 10 -5
v 3 12 -3
v 3 12 -5
v 3 14 5
v 3 14 3
v 3 14 -1
v 3 14 -3
v 3 14 -5
v 3 16 5
v 3 16 3
v 3 16 -1
v 3 16 -3
v 3 18 3
v 3 18 -1
v 5 6 3
v 5 6 -1
v 5 8 5
v 5 8 3
v 5 8 -1
v 5 8 -3
v 5 10 5
v 5 10 3
v 5 10 -1
v 5 10 -3
v 5 10 -5
v 5 12 5
v 5 12 3
v 5 12 -1
v 5 12 -3
v 5 12 -5
v 5 14 5
v 5 14 3
v 5 14 -1
v 5 14 -3
v 5 16 3
v 5 16 -1
v 7 8 3
v 7 8 -1
v 7 10 -1
v 7 10 -3
v 7 12 -1
v 7 12 -3
v 7 14 3
v 7 14 -1
v -5 8 5
v -5 10 5
v -5 12 5
v -5 14 5
v -3 6 5
v -3 8 5
v -3 10 5
v -3 12 5
v -3 14 5
v -3 16 5
v -1 4 5
v -1 6 5
v -1 8 5
v -1 10 5
v -1 12 5
v -1 14 5
v -1 16 5
v -1 18 5
v 1 4 5
v 1 6 5
v 1 8 5
v 1 10 5
v 1 12 5
v 1 14 5
v 1 16 5
v 1 18 5
v 3 6 5
v 3 8 5
v 3 10 5
v 3 12 5
v 3 14 5
v 3 16 5
v 5 8 5
v 5 10 5
v 5 12 5
v 5 14 5
v -7 8 3
v -7 14 3
v -5 6 3
v -5 8 3
v -5 10 3
v -5 12 3
v -5 14 3
v -5 16 3
v -3 0 3
v -3 4 3
v -3 6 3
v -3 8 3
v -3 10 3
v -3 12 3
v -3 14 3
v -3 16 3
v -3 18 3
v -1 2 3
v -1 4 3
v -1 6 3
v -1 10 3
v -1 12 3
v -1 16 3
v -1 18 3
v 1 2 3
v 1 4 3
v 1 6 3
v 1 10 3
v 1 12 3
v 1 16 3
v 1 18 3
v 3 0 3
v 3 4 3
v 3 6 3
v 3 8 3
v 3 10 3
v 3 12 3
v 3 14 3
v 3 16 3
v 3 18 3
v 5 6 3
v 5 8 3
v 5 10 3
v 5 12 3
v 5 14 3
v 5 16 3
v 7 8 3
v 7 14 3
v -1 2 1
v -1 4 1
v 1 2 1
v 1 4 1
v -7 8 1
v -7 10 1
v -7 12 1
v -7 14 1
v -5 8 1
v -5 10 1
v -5 12 1
v -5 14 1
v -5 6 -1
v -5 8 -1
v -5 14 -1
v -5 16 -1
v -3 0 -1
v -3 2 -1
v -3 6 -1
v -3 8 -1
v -3 14 -1
v -3 16 -1
v -3 18 -1
v -1 0 -1
v -1 2 -1
v -1 16 -1
v -1 18 -1
v 1 0 -1
v 1 2 -1
v 1 16 -1
v 1 18 -1
v 3 0 -1
v 3 2 -1
v 3 6 -1
v 3 8 -1
v 3 14 -1
v 3 16 -1
v 3 18 -1
v 5 6 -1
v 5 8 -1
v 5 10 -1
v 5 12 -1
v 5 14 -1
v 5 16 -1
v 7 8 -1
v 7 10 -1
v 7 12 -1
v 7 14 -1
v -7 10 -3
v -7 12 -3
v -5 8 -3
v -5 10 -3
v -5 12 -3
v -5 14 -3
v -3 2 -3
v -3 8 -3
v -3 10 -3
v -3 12 -3
v -3 14 -3
v -3 16 -3
v -1 0 -3
v -1 2 -3
v -1 4 -3
v -1 8 -3
v -1 14 -3
v -1 16 -3
v -1 18 -3
v 1 0 -3
v 1 2 -3
v 1 4 -3
v 1 8 -3
v 1 14 -3
v 1 16 -3
v 1 18 -3
v 3 2 -3
v 3 8 -3
v 3 10 -3
v 3 12 -3
v 3 14 -3
v 3 16 -3
v 5 8 -3
v 5 10 -3
v 5 12 -3
v 5 14 -3
v 7 10 -3
v 7 12 -3
v -5 10 -5
v -5 12 -5
v -3 8 -5
v -3 10 -5
v -3 12 -5
v -3 14 -5
v -1 4 -5
v -1 8 -5
v -1 14 -5
v -1 16 -5
v 1 4 -5
v 1 8 -5
v 1 14 -5
v 1 16 -5
v 3 8 -5
v 3 10 -5
v 3 12 -5
v 3 14 -5
v 5 10 -5
v 5 12 -5
v -3 0 3
v 3 0 3
v -3 0 -1
v -1 0 -1
v 1 0 -1
v 3 0 -1
v -1 0 -3
v 1 0 -3
v -3 2 -1
v -1 2 -1
v 1 2 -1
v 3 2 -1
v -3 2 -3
v -1 2 -3
v 1 2 -3
v 3 2 -3
v -1 4 5
v 1 4 5
v -1 4 3
v 1 4 3
v -1 4 1
v 1 4 1
v -1 4 -3
v 1 4 -3
v -1 4 -5
v 1 4 -5
v -3 6 5
v -1 6 5
v 1 6 5
v 3 6 5
v -5 6 3
v -3 6 3
v -1 6 3
v 1 6 3
v 3 6 3
v 5 6 3
v -5 6 -1
v -3 6 -1
v 3 6 -1
v 5 6 -1
v -5 8 5
v -3 8 5
v 3 8 5
v 5 8 5
v -7 8 3
v -5 8 3
v -3 8 3
v 3 8 3
v 5 8 3
v 7 8 3
v -7 8 1
v -5 8 1
v -5 8 -1
v -3 8 -1
v 3 8 -1
v 5 8 -1
v 7 8 -1
v -5 8 -3
v -3 8 -3
v -1 8 -3
v 1 8 -3
v 3 8 -3
v 5 8 -3
v -3 8 -5
v -1 8 -5
v 1 8 -5
v 3 8 -5
v -7 10 1
v -5 10 1
v 5 10 -1
v 7 10 -1
v -7 10 -3
v -5 10 -3
v -3 10 -3
v 3 10 -3
v 5 10 -3
v 7 10 -3
v -5 10 -5
v -3 10 -5
v 3 10 -5
v 5 10 -5
v -3 12 5
v -1 12 5
v 1 12 5
v 3 12 5
v -3 12 3
v -1 12 3
v 1 12 3
v 3 12 3
v -1 2 3
v 1 2 3
v -1 2 1
v 1 2 1
v -3 10 5
v -1 10 5
v 1 10 5
v 3 10 5
v -3 10 3
v -1 10 3
v 1 10 3
v 3 10 3
v -7 12 1
v -5 12 1
v 5 12 -1
v 7 12 -1
v -7 12 -3
v -5 12 -3
v -3 12 -3
v 3 12 -3
v 5 12 -3
v 7 12 -3
v -5 12 -5
v -3 12 -5
v 3 12 -5
v 5 12 -5
v -5 14 5
v -3 14 5
v 3 14 5
v 5 14 5
v -7 14 3
v -5 14 3
v -3 14 3
v 3 14 3
v 5 14 3
v 7 14 3
v -7 14 1
v -5 14 1
v -5 14 -1
v -3 14 -1
v 3 14 -1
v 5 14 -1
v 7 14 -1
v -5 14 -3
v -3 14 -3
v -1 14 -3
v 1 14 -3
v 3 14 -3
v 5 14 -3
v -3 14 -5
v -1 14 -5
v 1 14 -5
v 3 14 -5
v -3 16 5
v -1 16 5
v 1 16 5
v 3 16 5
v -5 16 3
v -3 16 3
v -1 16 3
v 1 16 3
v 3 16 3
v 5 16 3
v -5 16 -1
v -3 16 -1
v -1 16 -1
v 1 16 -1
v 3 16 -1
v 5 16 -1
v -3 16 -3
v -1 16 -3
v 1 16 -3
v 3 16 -3
v -1 16 -5
v 1 16 -5
v -1 18 5
v 1 18 5
v -3 18 3
v -1 18 3
v 1 18 3
v 3 18 3
v -3 18 -1
v -1 18 -1
v 1 18 -1
v 3 18 -1
v -1 18 -3
v 1 18 -3

# faces
f 3/3/1 2/3/1 1/3/1
f 5/3/1 3/3/1 1/3/1
f 5/3/1 4/3/1 3/3/1
f 6/3/1 4/3/1 5/3/1
f 7/3/1 5/3/1 1/3/1
f 8/3/1 5/3/1 7/3/1
f 12/3/1 10/3/1 9/3/1
f 13/3/1 10/3/1 12/3/1
f 14/3/1 10/3/1 13/3/1
f 16/3/1 12/3/1 11/3/1
f 17/3/1 12/3/1 16/3/1
f 18/3/1 15/3/1 14/3/1
f 18/3/1 14/3/1 13/3/1
f 19/3/1 15/3/1 18/3/1
f 21/1/1 17/1/1 16/1/1
f 22/1/1 17/1/1 21/1/1
f 24/3/1 20/3/1 19/3/1
f 25/3/1 20/3/1 24/3/1
f 26/3/1 22/3/1 21/3/1
f 27/3/1 22/3/1 26/3/1
f 28/3/1 24/3/1 23/3/1
f 29/3/1 24/3/1 28/3/1
f 30/3/1 24/3/1 29/3/1
f 31/3/1 28/3/1 27/3/1
f 31/3/1 29/3/1 28/3/1
f 32/3/1 29/3/1 31/3/1
f 35/1/1 34/1/1 33/1/1
f 37/1/1 35/1/1 33/1/1
f 38/3/1 36/3/1 35/3/1
f 38/1/1 35/1/1 37/1/1
f 40/3/1 38/3/1 37/3/1
f 41/3/1 36/3/1 38/3/1
f 41/3/1 38/3/1 40/3/1
f 42/3/1 40/3/1 39/3/1
f 43/3/1 40/3/1 42/3/1
f 44/3/1 36/3/1 41/3/1
f 45/3/1 36/3/1 44/3/1
f 47/3/1 46/3/1 45/3/1
f 48/3/1 46/3/1 47/3/1
f 54/3/1 50/3/1 49/3/1
f 55/3/1 50/3/1 54/3/1
f 56/3/1 52/3/1 51/3/1
f 57/3/1 52/3/1 56/3/1
f 58/3/1 54/3/1 53/3/1
f 59/3/1 54/3/1 58/3/1
f 60/3/1 58/3/1 57/3/1
f 61/3/1 58/3/1 60/3/1
f 64/3/1 63/3/1 62/3/1
f 65/3/1 63/3/1 64/3/1
f 70/3/1 67/3/1 66/3/1
f 71/3/1 67/3/1 70/3/1
f 72/3/1 69/3/1 68/3/1
f 73/3/1 69/3/1 72/3/1
f 76/1/1 75/1/1 74/1/1
f 77/1/1 75/1/1 76/1/1
f 83/3/1 79/3/1 78/3/1
f 84/3/1 79/3/1 83/3/1
f 85/3/1 81/3/1 80/3/1
f 86/3/1 81/3/1 85/3/1
f 87/3/1 83/3/1 82/3/1
f 88/3/1 83/3/1 87/3/1
f 91/1/1 90/1/1 89/1/1
f 92/1/1 90/1/1 91/1/1
f 95/1/1 94/1/1 93/1/1
f 96/1/1 94/1/1 95/1/1
f 97/1/2 98/1/2 99/1/2
f 99/1/2 98/1/2 100/1/2
f 101/1/2 102/1/2 103/1/2
f 103/1/2 102/1/2 104/1/2
f 105/3/2 106/3/2 107/3/2
f 107/3/2 106/3/2 108/3/2
f 109/3/2 110/3/2 113/3/2
f 113/3/2 110/3/2 114/3/2
f 111/3/2 112/3/2 115/3/2
f 115/3/2 112/3/2 116/3/2
f 117/1/2 118/1/2 119/1/2
f 119/1/2 118/1/2 120/1/2
f 121/3/2 122/3/2 126/3/2
f 126/3/2 122/3/2 127/3/2
f 123/3/2 124/3/2 128/3/2
f 128/3/2 124/3/2 129/3/2
f 125/3/2 126/3/2 130/3/2
f 130/3/2 126/3/2 131/3/2
f 132/1/2 133/1/2 134/1/2
f 132/1/2 134/1/2 136/1/2
f 134/3/2 135/3/2 137/3/2
f 136/1/2 134/1/2 137/1/2
f 136/3/2 137/3/2 139/3/2
f 137/3/2 135/3/2 140/3/2
f 139/3/2 137/3/2 140/3/2
f 138/3/2 139/3/2 141/3/2
f 141/3/2 139/3/2 142/3/2
f 140/3/2 135/3/2 143/3/2
f 143/3/2 135/3/2 144/3/2
f 144/3/2 145/3/2 146/3/2
f 146/3/2 145/3/2 147/3/2
f 148/3/2 149/3/2 153/3/2
f 153/3/2 149/3/2 154/3/2
f 150/3/2 151/3/2 155/3/2
f 155/3/2 151/3/2 156/3/2
f 152/3/2 153/3/2 157/3/2
f 157/3/2 153/3/2 158/3/2
f 156/3/2 157/3/2 159/3/2
f 159/3/2 157/3/2 160/3/2
f 161/3/2 162/3/2 164/3/2
f 164/3/2 162/3/2 165/3/2
f 163/3/2 164/3/2 167/3/2
f 167/3/2 164/3/2 168/3/2
f 165/3/2 166/3/2 169/3/2
f 169/3/2 166/3/2 170/3/2
f 167/1/2 168/1/2 172/1/2
f 172/1/2 168/1/2 173/1/2
f 170/3/2 171/3/2 175/3/2
f 175/3/2 171/3/2 176/3/2
f 172/3/2 173/3/2 177/3/2
f 177/3/2 173/3/2 178/3/2
f 174/3/2 175/3/2 179/3/2
f 179/3/2 175/3/2 180/3/2
f 178/3/2 179/3/2 181/3/2
f 181/3/2 179/3/2 182/3/2
f 183/3/2 184/3/2 185/3/2
f 183/3/2 185/3/2 187/3/2
f 185/3/2 186/3/2 187/3/2
f 187/3/2 186/3/2 188/3/2
f 183/3/2 187/3/2 189/3/2
f 189/3/2 187/3/2 190/3/2
f 196/3/3 192/3/3 191/3/3
f 197/1/3 193/1/3 192/1/3
f 197/3/3 192/3/3 196/3/3
f 198/3/3 194/3/3 193/3/3
f 198/1/3 193/1/3 197/1/3
f 199/3/3 194/3/3 198/3/3
f 202/3/3 196/3/3 195/3/3
f 203/1/3 197/1/3 196/1/3
f 203/3/3 196/3/3 202/3/3
f 204/1/3 197/1/3 203/1/3
f 205/1/3 199/1/3 198/1/3
f 206/3/3 200/3/3 199/3/3
f 206/1/3 199/1/3 205/1/3
f 207/3/3 200/3/3 206/3/3
f 209/3/3 202/3/3 201/3/3
f 209/3/3 204/3/3 203/3/3
f 209/3/3 203/3/3 202/3/3
f 210/3/3 204/3/3 209/3/3
f 211/3/3 204/3/3 210/3/3
f 212/1/3 207/1/3 206/1/3
f 212/3/3 204/3/3 211/3/3
f 212/1/3 205/1/3 204/1/3
f 212/1/3 206/1/3 205/1/3
f 213/1/3 207/1/3 212/1/3
f 214/1/3 207/1/3 213/1/3
f 215/3/3 208/3/3 207/3/3
f 215/1/3 207/1/3 214/1/3
f 216/3/3 208/3/3 215/3/3
f 217/3/3 211/3/3 210/3/3
f 218/1/3 212/1/3 211/1/3
f 218/3/3 211/3/3 217/3/3
f 219/1/3 212/1/3 218/1/3
f 220/1/3 214/1/3 213/1/3
f 221/3/3 215/3/3 214/3/3
f 221/1/3 214/1/3 220/1/3
f 222/3/3 215/3/3 221/3/3
f 223/3/3 219/3/3 218/3/3
f 224/1/3 220/1/3 219/1/3
f 224/3/3 219/3/3 223/3/3
f 225/3/3 221/3/3 220/3/3
f 225/1/3 220/1/3 224/1/3
f 226/3/3 221/3/3 225/3/3
f 230/3/3 228/3/3 227/3/3
f 231/3/3 228/3/3 230/3/3
f 232/3/3 228/3/3 231/3/3
f 233/3/3 228/3/3 232/3/3
f 237/3/3 230/3/3 229/3/3
f 238/3/3 230/3/3 237/3/3
f 241/3/3 234/3/3 233/3/3
f 242/3/3 234/3/3 241/3/3
f 244/1/3 236/1/3 235/1/3
f 245/3/3 237/3/3 236/3/3
f 245/1/3 236/1/3 244/1/3
f 246/3/3 237/3/3 245/3/3
f 247/2/3 240/2/3 239/2/3
f 248/2/3 240/2/3 247/2/3
f 249/3/3 243/3/3 242/3/3
f 250/3/3 243/3/3 249/3/3
f 251/1/3 244/1/3 235/1/3
f 258/1/3 251/1/3 235/1/3
f 258/1/3 252/1/3 251/1/3
f 259/3/3 253/3/3 252/3/3
f 259/1/3 252/1/3 258/1/3
f 260/3/3 253/3/3 259/3/3
f 262/2/3 255/2/3 254/2/3
f 263/2/3 255/2/3 262/2/3
f 265/3/3 257/3/3 256/3/3
f 266/3/3 257/3/3 265/3/3
f 267/3/3 261/3/3 260/3/3
f 268/3/3 261/3/3 267/3/3
f 271/3/3 265/3/3 264/3/3
f 272/3/3 265/3/3 271/3/3
f 273/3/3 270/3/3 269/3/3
f 273/3/3 271/3/3 270/3/3
f 273/3/3 269/3/3 268/3/3
f 274/3/3 271/3/3 273/3/3
f 277/2/3 276/2/3 275/2/3
f 278/2/3 276/2/3 277/2/3
f 279/3/4 280/3/4 283/3/4
f 283/3/4 280/3/4 284/3/4
f 281/3/4 282/3/4 285/3/4
f 285/3/4 282/3/4 286/3/4
f 287/3/4 288/3/4 293/3/4
f 293/3/4 288/3/4 294/3/4
f 289/3/4 290/3/4 295/3/4
f 295/3/4 290/3/4 296/3/4
f 291/1/4 292/1/4 298/1/4
f 298/1/4 292/1/4 299/1/4
f 296/3/4 297/3/4 300/3/4
f 300/3/4 297/3/4 301/3/4
f 302/1/4 303/1/4 306/1/4
f 306/1/4 303/1/4 307/1/4
f 304/3/4 305/3/4 311/3/4
f 311/3/4 305/3/4 312/3/4
f 308/3/4 309/3/4 313/3/4
f 313/3/4 309/3/4 314/3/4
f 310/3/4 311/3/4 317/3/4
f 317/3/4 311/3/4 318/3/4
f 314/3/4 315/3/4 319/3/4
f 319/3/4 315/3/4 320/3/4
f 316/3/4 317/3/4 321/3/4
f 321/3/4 317/3/4 322/3/4
f 323/3/4 324/3/4 326/3/4
f 326/3/4 324/3/4 327/3/4
f 325/3/4 326/3/4 330/3/4
f 330/3/4 326/3/4 331/3/4
f 327/3/4 328/3/4 332/3/4
f 332/3/4 328/3/4 333/3/4
f 329/3/4 330/3/4 336/3/4
f 336/3/4 330/3/4 337/3/4
f 337/3/4 330/3/4 338/3/4
f 333/3/4 334/3/4 339/3/4
f 339/3/4 334/3/4 340/3/4
f 335/3/4 336/3/4 342/3/4
f 336/3/4 337/3/4 342/3/4
f 342/3/4 337/3/4 343/3/4
f 343/3/4 337/3/4 344/3/4
f 340/3/4 341/3/4 347/3/4
f 347/3/4 341/3/4 348/3/4
f 344/3/4 345/3/4 349/3/4
f 343/3/4 344/3/4 349/3/4
f 349/3/4 345/3/4 350/3/4
f 346/3/4 347/3/4 353/3/4
f 353/3/4 347/3/4 354/3/4
f 350/3/4 351/3/4 355/3/4
f 355/3/4 351/3/4 356/3/4
f 352/3/4 353/3/4 357/3/4
f 357/3/4 353/3/4 358/3/4
f 356/3/4 357/3/4 359/3/4
f 359/3/4 357/3/4 360/3/4
f 361/3/4 362/3/4 364/3/4
f 364/3/4 362/3/4 365/3/4
f 363/3/4 364/3/4 368/3/4
f 365/3/4 366/3/4 368/3/4
f 364/3/4 365/3/4 368/3/4
f 368/3/4 366/3/4 369/3/4
f 367/3/4 368/3/4 371/3/4
f 369/3/4 370/3/4 371/3/4
f 368/3/4 369/3/4 371/3/4
f 371/3/4 370/3/4 372/3/4
f 372/3/4 370/3/4 373/3/4
f 373/3/4 370/3/4 374/3/4
f 372/3/4 373/3/4 375/3/4
f 375/3/4 373/3/4 376/3/4
f 376/3/4 373/3/4 377/3/4
f 377/3/4 373/3/4 378/3/4
f 376/3/4 377/3/4 379/3/4
f 379/3/4 377/3/4 380/3/4
f 383/1/5 382/1/5 381/1/5
f 384/1/5 382/1/5 383/1/5
f 385/1/5 382/1/5 384/1/5
f 386/1/5 382/1/5 385/1/5
f 387/3/5 385/3/5 384/3/5
f 388/3/5 385/3/5 387/3/5
f 393/3/5 390/3/5 389/3/5
f 394/3/5 390/3/5 393/3/5
f 395/3/5 392/3/5 391/3/5
f 396/3/5 392/3/5 395/3/5
f 399/3/5 398/3/5 397/3/5
f 400/3/5 398/3/5 399/3/5
f 401/3/5 400/3/5 399/3/5
f 402/3/5 400/3/5 401/3/5
f 405/3/5 404/3/5 403/3/5
f 406/3/5 404/3/5 405/3/5
f 412/3/5 408/3/5 407/3/5
f 413/3/5 408/3/5 412/3/5
f 414/3/5 410/3/5 409/3/5
f 415/3/5 410/3/5 414/3/5
f 417/3/5 412/3/5 411/3/5
f 418/3/5 412/3/5 417/3/5
f 419/3/5 416/3/5 415/3/5
f 420/3/5 416/3/5 419/3/5
f 426/3/5 422/3/5 421/3/5
f 427/3/5 422/3/5 426/3/5
f 428/3/5 424/3/5 423/3/5
f 429/3/5 424/3/5 428/3/5
f 431/3/5 426/3/5 425/3/5
f 432/3/5 426/3/5 431/3/5
f 436/3/5 430/3/5 429/3/5
f 437/3/5 430/3/5 436/3/5
f 438/3/5 434/3/5 433/3/5
f 439/3/5 434/3/5 438/3/5
f 442/3/5 436/3/5 435/3/5
f 443/3/5 436/3/5 442/3/5
f 444/3/5 440/3/5 439/3/5
f 445/3/5 440/3/5 444/3/5
f 446/3/5 442/3/5 441/3/5
f 447/3/5 442/3/5 446/3/5
f 452/3/5 449/3/5 448/3/5
f 453/3/5 449/3/5 452/3/5
f 456/3/5 451/3/5 450/3/5
f 457/3/5 451/3/5 456/3/5
f 458/3/5 454/3/5 453/3/5
f 459/3/5 454/3/5 458/3/5
f 460/3/5 456/3/5 455/3/5
f 461/3/5 456/3/5 460/3/5
f 466/1/5 463/1/5 462/1/5
f 467/1/5 463/1/5 466/1/5
f 468/1/5 465/1/5 464/1/5
f 469/1/5 465/1/5 468/1/5
f 470/1/6 471/1/6 472/1/6
f 472/1/6 471/1/6 473/1/6
f 474/1/6 475/1/6 478/1/6
f 478/1/6 475/1/6 479/1/6
f 476/1/6 477/1/6 480/1/6
f 480/1/6 477/1/6 481/1/6
f 482/3/6 483/3/6 486/3/6
f 486/3/6 483/3/6 487/3/6
f 484/3/6 485/3/6 490/3/6
f 490/3/6 485/3/6 491/3/6
f 487/3/6 488/3/6 492/3/6
f 492/3/6 488/3/6 493/3/6
f 489/3/6 490/3/6 494/3/6
f 494/3/6 490/3/6 495/3/6
f 496/3/6 497/3/6 501/3/6
f 501/3/6 497/3/6 502/3/6
f 498/3/6 499/3/6 503/3/6
f 503/3/6 499/3/6 504/3/6
f 500/3/6 501/3/6 506/3/6
f 506/3/6 501/3/6 507/3/6
f 504/3/6 505/3/6 511/3/6
f 511/3/6 505/3/6 512/3/6
f 508/3/6 509/3/6 513/3/6
f 513/3/6 509/3/6 514/3/6
f 510/3/6 511/3/6 517/3/6
f 517/3/6 511/3/6 518/3/6
f 514/3/6 515/3/6 519/3/6
f 519/3/6 515/3/6 520/3/6
f 516/3/6 517/3/6 521/3/6
f 521/3/6 517/3/6 522/3/6
f 523/3/6 524/3/6 528/3/6
f 528/3/6 524/3/6 529/3/6
f 525/3/6 526/3/6 530/3/6
f 530/3/6 526/3/6 531/3/6
f 527/3/6 528/3/6 533/3/6
f 533/3/6 528/3/6 534/3/6
f 531/3/6 532/3/6 537/3/6
f 537/3/6 532/3/6 538/3/6
f 534/3/6 535/3/6 539/3/6
f 539/3/6 535/3/6 540/3/6
f 536/3/6 537/3/6 541/3/6
f 541/3/6 537/3/6 542/3/6
f 540/3/6 541/3/6 543/3/6
f 543/3/6 541/3/6 544/3/6
f 545/3/6 546/3/6 548/3/6
f 548/3/6 546/3/6 549/3/6
f 547/3/6 548/3/6 551/3/6
f 549/3/6 550/3/6 551/3/6
f 548/3/6 549/3/6 551/3/6
f 551/3/6 550/3/6 552/3/6
f 552/3/6 550/3/6 553/3/6
f 553/3/6 550/3/6 554/3/6
f 552/3/6 553/3/6 555/3/6
f 555/3/6 553/3/6 556/3/6
